<svg width="30" height="31" viewBox="0 0 30 31" fill="none" xmlns="http://www.w3.org/2000/svg">
<path d="M23.4439 13.2993L19.4807 11.097L17.287 15.0661L18.3211 15.6393L19.5854 13.3584C19.8744 14.3501 20.0106 15.2653 19.994 16.1042C19.976 16.9443 19.8018 17.6638 19.4714 18.2625C19.1311 18.8751 18.693 19.3887 18.1571 19.8031C17.6212 20.2175 17.0513 20.5114 16.4472 20.6846C16.084 20.7887 15.7094 20.8527 15.3232 20.8765C14.937 20.9003 14.5591 20.882 14.1895 20.8215L13.6693 21.9097C14.1923 22.0279 14.7136 22.0786 15.2331 22.0619C15.7524 22.0443 16.2628 21.9636 16.7644 21.8198C17.5257 21.6015 18.2352 21.2381 18.893 20.7295C19.5507 20.2209 20.0889 19.5936 20.5074 18.8476C20.9286 18.1008 21.1464 17.2158 21.161 16.1926C21.1763 15.1692 21.0444 14.1607 20.765 13.1672L22.8711 14.3346L23.4439 13.2993ZM16.4033 9.67691C15.8803 9.55872 15.3591 9.50843 14.8399 9.52602C14.3203 9.54275 13.8098 9.62303 13.3082 9.76685C12.5495 9.98442 11.8376 10.3476 11.1725 10.8564C10.5074 11.3652 9.96969 11.9956 9.5593 12.7477C9.13571 13.4859 8.91825 14.369 8.90689 15.3968C8.89664 16.4252 9.03288 17.4325 9.31563 18.4185L7.20191 17.2533L6.62873 18.2874L10.5923 20.4909L12.7859 16.5218L11.7519 15.9486L10.4834 18.239C10.2002 17.2513 10.0669 16.3333 10.0835 15.4852C10.1013 14.6377 10.2768 13.9147 10.61 13.3161C10.9422 12.7169 11.3767 12.2085 11.9135 11.791C12.4492 11.373 13.02 11.0771 13.6258 10.9033C13.9889 10.7992 14.3635 10.7348 14.7494 10.7102C15.1353 10.6855 15.5133 10.7038 15.8831 10.7651L16.4033 9.67691ZM26.574 12.4946C27.0312 14.0891 27.1587 15.6754 26.9566 17.2535C26.7533 18.8311 26.2816 20.2883 25.5413 21.625C24.802 22.9614 23.8176 24.1337 22.5883 25.1418C21.359 26.15 19.9467 26.8827 18.3515 27.3402C16.7571 27.7974 15.1708 27.9249 13.5926 27.7227C12.015 27.5195 10.5578 27.0477 9.22113 26.3075C7.88467 25.5681 6.71238 24.5838 5.70427 23.3545C4.69615 22.1252 3.96337 20.7129 3.50594 19.1176C3.04875 17.5232 2.92123 15.9369 3.12339 14.3587C3.32664 12.7811 3.79839 11.324 4.53861 9.98729C5.27799 8.65083 6.26233 7.47854 7.49163 6.47043C8.72093 5.46231 10.1332 4.72953 11.7285 4.2721C13.3229 3.81491 14.9092 3.68739 16.4874 3.88955C18.065 4.0928 19.5221 4.56454 20.8588 5.30477C22.1953 6.04415 23.3676 7.02849 24.3757 8.25779C25.3838 9.48709 26.1166 10.8994 26.574 12.4946ZM25.2934 12.866C24.4726 10.0036 22.7841 7.86389 20.2279 6.44693C17.6716 5.02998 14.9623 4.73189 12.0998 5.55268C9.23742 6.37346 7.09773 8.06199 5.68077 10.6182C4.26382 13.1745 3.96573 15.8838 4.78652 18.7463C5.60731 21.6087 7.29583 23.7484 9.85209 25.1653C12.4083 26.5823 15.1177 26.8804 17.9801 26.0596C20.8425 25.2388 22.9822 23.5503 24.3992 20.994C25.8161 18.4378 26.1142 15.7284 25.2934 12.866Z" fill="#F8F8F8"/>
</svg>
