<svg width="22" height="22" viewBox="0 0 22 22" fill="none" xmlns="http://www.w3.org/2000/svg">
<path d="M7.33334 16.5L11 13.7042L14.6667 16.5L13.2917 11.9625L16.9583 9.35H12.4667L11 4.58334L9.53334 9.35H5.04167L8.70834 11.9625L7.33334 16.5ZM11 20.1667C9.73195 20.1667 8.54028 19.9259 7.425 19.4443C6.30973 18.9628 5.33959 18.3098 4.51459 17.4854C3.68959 16.6604 3.03661 15.6903 2.55567 14.575C2.07472 13.4597 1.83395 12.2681 1.83334 11C1.83334 9.73195 2.07411 8.54028 2.55567 7.425C3.03722 6.30973 3.6902 5.33959 4.51459 4.51459C5.33959 3.68959 6.30973 3.03661 7.425 2.55567C8.54028 2.07472 9.73195 1.83395 11 1.83334C12.2681 1.83334 13.4597 2.07411 14.575 2.55567C15.6903 3.03722 16.6604 3.6902 17.4854 4.51459C18.3104 5.33959 18.9637 6.30973 19.4453 7.425C19.9268 8.54028 20.1673 9.73195 20.1667 11C20.1667 12.2681 19.9259 13.4597 19.4443 14.575C18.9628 15.6903 18.3098 16.6604 17.4854 17.4854C16.6604 18.3104 15.6903 18.9637 14.575 19.4453C13.4597 19.9268 12.2681 20.1673 11 20.1667ZM11 18.3333C13.0472 18.3333 14.7813 17.6229 16.2021 16.2021C17.6229 14.7813 18.3333 13.0472 18.3333 11C18.3333 8.95278 17.6229 7.21875 16.2021 5.79792C14.7813 4.37709 13.0472 3.66667 11 3.66667C8.95278 3.66667 7.21875 4.37709 5.79792 5.79792C4.37709 7.21875 3.66667 8.95278 3.66667 11C3.66667 13.0472 4.37709 14.7813 5.79792 16.2021C7.21875 17.6229 8.95278 18.3333 11 18.3333Z" fill="#FFB800"/>
</svg>
