<svg width="14" height="14" viewBox="0 0 14 14" fill="none" xmlns="http://www.w3.org/2000/svg">
<path fill-rule="evenodd" clip-rule="evenodd" d="M7.9654 3.51007C6.72157 3.37416 5.468 3.36408 4.2223 3.47998L3.39038 3.55711C3.05656 3.58826 2.74256 3.73551 2.49907 3.9751C2.25558 4.2147 2.09681 4.53265 2.04837 4.87765C1.85054 6.28516 1.85054 7.71511 2.04837 9.12262C2.09692 9.46766 2.2558 9.78563 2.49937 10.0252C2.74295 10.2648 3.05702 10.412 3.39091 10.4432L4.22282 10.5197C5.46851 10.6358 6.72208 10.6259 7.96592 10.4902L8.28565 10.4552C8.60302 10.4206 8.90143 10.2813 9.13729 10.0577C9.37315 9.83405 9.5341 9.53786 9.59663 9.21233L11.1989 10.0974C11.2565 10.1292 11.3207 10.1457 11.3858 10.1454C11.4509 10.1451 11.515 10.128 11.5722 10.0956C11.6295 10.0633 11.6781 10.0167 11.7138 9.96002C11.7495 9.90335 11.7712 9.83836 11.7769 9.77085L11.79 9.6155C11.9367 7.87508 11.9367 6.12464 11.79 4.38423L11.7769 4.22887C11.7711 4.16133 11.7494 4.09633 11.7137 4.03966C11.6779 3.98299 11.6292 3.93643 11.5719 3.90413C11.5146 3.87183 11.4505 3.85481 11.3853 3.85459C11.3201 3.85436 11.2559 3.87094 11.1984 3.90284L9.59663 4.78793C9.5341 4.46241 9.37315 4.16621 9.13729 3.94261C8.90143 3.71901 8.60302 3.57971 8.28565 3.54508L7.9654 3.51007ZM4.29276 4.29725C5.48754 4.18614 6.68986 4.19585 7.88284 4.32624L8.20256 4.36125C8.35878 4.37846 8.50506 4.44923 8.61835 4.56243C8.73165 4.67564 8.80552 4.82483 8.82834 4.98651C9.0166 6.32181 9.0166 7.67791 8.82834 9.01376C8.80552 9.17544 8.73165 9.32463 8.61835 9.43783C8.50506 9.55103 8.35878 9.62181 8.20256 9.63902L7.88284 9.67403C6.68986 9.80443 5.48754 9.81414 4.29276 9.70302L3.46085 9.62534C3.30362 9.61075 3.1557 9.5415 3.04093 9.42876C2.92616 9.31602 2.85124 9.16637 2.82823 9.00391C2.64146 7.67512 2.64146 6.32514 2.82823 4.99635C2.85104 4.83376 2.92589 4.68393 3.04069 4.57106C3.15548 4.4582 3.30351 4.3889 3.46085 4.37438L4.29276 4.29725ZM9.6997 5.6599C9.77805 6.55157 9.77805 7.4487 9.6997 8.34036L11.0391 9.0805C11.1344 7.69536 11.1344 6.30491 11.0391 4.91977L9.6997 5.6599Z" fill="white"/>
</svg>
