<svg width="14" height="14" viewBox="0 0 14 14" fill="none" xmlns="http://www.w3.org/2000/svg">
<path d="M3 9.22222V5.22222C3 4.98647 3.09365 4.76038 3.26035 4.59368C3.42705 4.42698 3.65314 4.33333 3.88889 4.33333H4.30222C4.44853 4.33336 4.59257 4.29726 4.72158 4.22826C4.8506 4.15926 4.96058 4.05948 5.04178 3.93778L5.40267 3.39556C5.48387 3.27385 5.59385 3.17407 5.72286 3.10507C5.85187 3.03607 5.99592 2.99998 6.14222 3H7.85778C8.00408 2.99998 8.14813 3.03607 8.27714 3.10507C8.40615 3.17407 8.51613 3.27385 8.59733 3.39556L8.95822 3.93778C9.03942 4.05948 9.1494 4.15926 9.27842 4.22826C9.40743 4.29726 9.55147 4.33336 9.69778 4.33333H10.1111C10.3469 4.33333 10.573 4.42698 10.7397 4.59368C10.9063 4.76038 11 4.98647 11 5.22222V9.22222C11 9.45797 10.9063 9.68406 10.7397 9.85076C10.573 10.0175 10.3469 10.1111 10.1111 10.1111H3.88889C3.65314 10.1111 3.42705 10.0175 3.26035 9.85076C3.09365 9.68406 3 9.45797 3 9.22222Z" stroke="white" stroke-linecap="round" stroke-linejoin="round"/>
<path d="M7 8.33332C7.73638 8.33332 8.33333 7.73637 8.33333 6.99999C8.33333 6.26361 7.73638 5.66666 7 5.66666C6.26362 5.66666 5.66666 6.26361 5.66666 6.99999C5.66666 7.73637 6.26362 8.33332 7 8.33332Z" stroke="white" stroke-linecap="round" stroke-linejoin="round"/>
</svg>
